<?xml version="1.0" encoding="UTF-8" standalone="no"?>
<svg
   xmlns:dc="http://purl.org/dc/elements/1.1/"
   xmlns:cc="http://creativecommons.org/ns#"
   xmlns:rdf="http://www.w3.org/1999/02/22-rdf-syntax-ns#"
   xmlns:svg="http://www.w3.org/2000/svg"
   xmlns="http://www.w3.org/2000/svg"
   id="svg554"
   version="1.1"
   viewBox="0 0 115.25134 78.538994"
   height="78.538994mm"
   width="115.25134mm">
  <defs
     id="defs548">
    <clipPath
       id="clipPath22"
       clipPathUnits="userSpaceOnUse">
      <path
         id="path20"
         d="M 0,0 H 505 V 345 H 0 Z" />
    </clipPath>
    <clipPath
       id="clipPath52"
       clipPathUnits="userSpaceOnUse">
      <path
         style="clip-rule:evenodd"
         id="path50"
         d="M 0,3450 V 0 H 5050 V 3450 Z M 2180.59,738.77 h 105.82 v 37.792 h -105.82 v 0 l 75.59,-18.894 z" />
    </clipPath>
    <clipPath
       id="clipPath64"
       clipPathUnits="userSpaceOnUse">
      <path
         style="clip-rule:evenodd"
         id="path62"
         d="M 0,3450 V 0 H 5050 V 3450 Z M 2172.4,1789.44 h 105.83 v 37.8 H 2172.4 v 0 l 75.59,-18.9 z" />
    </clipPath>
    <clipPath
       id="clipPath76"
       clipPathUnits="userSpaceOnUse">
      <path
         style="clip-rule:evenodd"
         id="path74"
         d="M 0,3450 V 0 h 5050 v 3450 z m 3514.09,-1684.49 55.43,-90.08 32.12,19.53 -55.43,90.08 v 0 l 23.94,-74.33 z" />
    </clipPath>
    <clipPath
       id="clipPath88"
       clipPathUnits="userSpaceOnUse">
      <path
         style="clip-rule:evenodd"
         id="path86"
         d="M 0,3450 V 0 h 5050 v 3450 z m 3427.16,-1796.62 98.9,-37.79 13.23,35.27 -98.9,37.8 v 0 l 64.25,-44.72 z" />
    </clipPath>
    <clipPath
       id="clipPath100"
       clipPathUnits="userSpaceOnUse">
      <path
         style="clip-rule:evenodd"
         id="path98"
         d="M 0,3450 V 0 h 5050 v 3450 z m 4223.36,-379.34 v 105.82 h -37.8 v -105.82 0 l 18.9,75.59 z" />
    </clipPath>
    <clipPath
       id="clipPath112"
       clipPathUnits="userSpaceOnUse">
      <path
         style="clip-rule:evenodd"
         id="path110"
         d="M 0,3450 V 0 h 5050 v 3450 z m 2759.47,-749.72 19.53,104.56 -37.17,6.93 -19.53,-104.56 v 0 l 32.76,70.55 z" />
    </clipPath>
    <clipPath
       id="clipPath124"
       clipPathUnits="userSpaceOnUse">
      <path
         style="clip-rule:evenodd"
         id="path122"
         d="M 0,3450 V 0 h 5050 v 3450 z m 3599.76,-2131.09 58.58,88.18 -31.5,21.42 -58.58,-88.81 v 0 l 57.95,52.28 z" />
    </clipPath>
    <clipPath
       id="clipPath136"
       clipPathUnits="userSpaceOnUse">
      <path
         style="clip-rule:evenodd"
         id="path134"
         d="M 0,3450 V 0 H 5050 V 3450 Z M 2180.59,2411.15 h 105.82 v 37.8 h -105.82 v 0 l 75.59,-18.9 z" />
    </clipPath>
    <clipPath
       id="clipPath148"
       clipPathUnits="userSpaceOnUse">
      <path
         style="clip-rule:evenodd"
         id="path146"
         d="M 0,3450 V 0 h 5050 v 3450 z m 3966.36,-188.48 h 105.82 v 37.79 h -105.82 v 0 l 75.59,-18.89 z" />
    </clipPath>
    <clipPath
       id="clipPath162"
       clipPathUnits="userSpaceOnUse">
      <path
         style="clip-rule:evenodd"
         id="path160"
         d="M 0,3450 V 0 h 5050 v 3450 z m 4625.86,-177.77 h 61.1 v 28.34 h -61.1 v 0 l 37.8,-14.48 z" />
    </clipPath>
  </defs>
  <metadata
     id="metadata551">
    <rdf:RDF>
      <cc:Work
         rdf:about="">
        <dc:format>image/svg+xml</dc:format>
        <dc:type
           rdf:resource="http://purl.org/dc/dcmitype/StillImage" />
        <dc:title></dc:title>
      </cc:Work>
    </rdf:RDF>
  </metadata>
  <g
     transform="translate(-36.868382,-86.129309)"
     id="layer1">
    <g
       transform="matrix(0.22970772,0,0,-0.22970772,36.602787,165.09667)"
       id="g12">
      <g
         id="g14">
        <g
           id="g16">
          <g
             clip-path="url(#clipPath22)"
             id="g18">
            <g
               transform="scale(0.1)"
               id="g24">
              <path
                 id="path26"
                 style="fill:#ffffff;fill-opacity:1;fill-rule:evenodd;stroke:none"
                 d="m 4330.44,3293.64 c 0,-78.27 -63.45,-141.72 -141.73,-141.72 -78.27,0 -141.73,63.45 -141.73,141.72 0,78.28 63.46,141.73 141.73,141.73 78.28,0 141.73,-63.45 141.73,-141.73" />
              <path
                 id="path28"
                 style="fill:none;stroke:#000000;stroke-width:4.72424984;stroke-linecap:butt;stroke-linejoin:miter;stroke-miterlimit:10;stroke-dasharray:none;stroke-opacity:1"
                 d="m 4330.44,3293.64 c 0,-78.27 -63.45,-141.72 -141.73,-141.72 -78.27,0 -141.73,63.45 -141.73,141.72 0,78.28 63.46,141.73 141.73,141.73 78.28,0 141.73,-63.45 141.73,-141.73 z" />
              <path
                 id="path30"
                 style="fill:#ffffff;fill-opacity:1;fill-rule:evenodd;stroke:none"
                 d="m 3767.31,1555.75 c 0,-78.27 -63.45,-141.73 -141.73,-141.73 -78.27,0 -141.72,63.46 -141.72,141.73 0,78.27 63.45,141.73 141.72,141.73 78.28,0 141.73,-63.46 141.73,-141.73" />
              <path
                 id="path32"
                 style="fill:none;stroke:#000000;stroke-width:4.72424984;stroke-linecap:butt;stroke-linejoin:miter;stroke-miterlimit:10;stroke-dasharray:none;stroke-opacity:1"
                 d="m 3767.31,1555.75 c 0,-78.27 -63.45,-141.73 -141.73,-141.73 -78.27,0 -141.72,63.46 -141.72,141.73 0,78.27 63.45,141.73 141.72,141.73 78.28,0 141.73,-63.46 141.73,-141.73 z" />
              <path
                 id="path34"
                 style="fill:#ffffff;fill-opacity:1;fill-rule:evenodd;stroke:none"
                 d="m 2274.45,2231.63 h 512.738 v 361.562 H 2274.45 Z" />
              <path
                 id="path36"
                 style="fill:none;stroke:#000000;stroke-width:4.72424984;stroke-linecap:butt;stroke-linejoin:miter;stroke-miterlimit:10;stroke-dasharray:none;stroke-opacity:1"
                 d="m 2274.45,2231.63 h 512.738 v 361.562 H 2274.45 Z" />
              <path
                 id="path38"
                 style="fill:#ffffff;fill-opacity:1;fill-rule:evenodd;stroke:none"
                 d="m 2274.45,559.246 h 512.738 V 920.808 H 2274.45 Z" />
              <path
                 id="path40"
                 style="fill:none;stroke:#000000;stroke-width:4.72424984;stroke-linecap:butt;stroke-linejoin:miter;stroke-miterlimit:10;stroke-dasharray:none;stroke-opacity:1"
                 d="m 2274.45,559.246 h 512.738 V 920.808 H 2274.45 Z" />
              <path
                 id="path42"
                 style="fill:#ffffff;fill-opacity:1;fill-rule:evenodd;stroke:none"
                 d="m 2266.26,1609.92 h 512.738 v 361.562 H 2266.26 Z" />
              <path
                 id="path44"
                 style="fill:none;stroke:#000000;stroke-width:4.72424984;stroke-linecap:butt;stroke-linejoin:miter;stroke-miterlimit:10;stroke-dasharray:none;stroke-opacity:1"
                 d="m 2266.26,1609.92 h 512.738 v 361.562 H 2266.26 Z" />
              <g
                 id="g46">
                <g
                   clip-path="url(#clipPath52)"
                   id="g48">
                  <path
                     id="path54"
                     style="fill:none;stroke:#000000;stroke-width:9.44849968;stroke-linecap:butt;stroke-linejoin:miter;stroke-miterlimit:10;stroke-dasharray:none;stroke-opacity:1"
                     d="M 916.383,757.668 H 2276.96" />
                </g>
              </g>
              <path
                 id="path56"
                 style="fill:none;stroke:#000000;stroke-width:9.44849968;stroke-linecap:butt;stroke-linejoin:miter;stroke-miterlimit:10;stroke-dasharray:none;stroke-opacity:1"
                 d="m 2180.59,738.77 75.59,18.898 -75.59,18.894" />
              <g
                 id="g58">
                <g
                   clip-path="url(#clipPath64)"
                   id="g60">
                  <path
                     id="path66"
                     style="fill:none;stroke:#000000;stroke-width:9.44849968;stroke-linecap:butt;stroke-linejoin:miter;stroke-miterlimit:10;stroke-dasharray:none;stroke-opacity:1"
                     d="M 908.191,1808.34 H 2268.78" />
                </g>
              </g>
              <path
                 id="path68"
                 style="fill:none;stroke:#000000;stroke-width:9.44849968;stroke-linecap:butt;stroke-linejoin:miter;stroke-miterlimit:10;stroke-dasharray:none;stroke-opacity:1"
                 d="m 2172.4,1789.44 75.59,18.9 -75.59,18.9" />
              <g
                 id="g70">
                <g
                   clip-path="url(#clipPath76)"
                   id="g72">
                  <path
                     id="path78"
                     style="fill:none;stroke:#000000;stroke-width:9.44849968;stroke-linecap:butt;stroke-linejoin:miter;stroke-miterlimit:10;stroke-dasharray:none;stroke-opacity:1"
                     d="m 2787.18,2430.05 h 340.15 l 453.53,-736.98" />
                </g>
              </g>
              <path
                 id="path80"
                 style="fill:none;stroke:#000000;stroke-width:9.44849968;stroke-linecap:butt;stroke-linejoin:miter;stroke-miterlimit:10;stroke-dasharray:none;stroke-opacity:1"
                 d="m 3514.09,1765.51 56.06,-54.8 -23.94,74.33" />
              <g
                 id="g82">
                <g
                   clip-path="url(#clipPath88)"
                   id="g84">
                  <path
                     id="path90"
                     style="fill:none;stroke:#000000;stroke-width:9.44849968;stroke-linecap:butt;stroke-linejoin:miter;stroke-miterlimit:10;stroke-dasharray:none;stroke-opacity:1"
                     d="m 2787.18,1806.45 h 283.46 l 453.53,-170.07" />
                </g>
              </g>
              <path
                 id="path92"
                 style="fill:none;stroke:#000000;stroke-width:9.44849968;stroke-linecap:butt;stroke-linejoin:miter;stroke-miterlimit:10;stroke-dasharray:none;stroke-opacity:1"
                 d="m 3427.16,1653.38 77.48,-9.44 -64.25,44.72" />
              <g
                 id="g94">
                <g
                   clip-path="url(#clipPath100)"
                   id="g96">
                  <path
                     id="path102"
                     style="fill:none;stroke:#000000;stroke-width:9.44849968;stroke-linecap:butt;stroke-linejoin:miter;stroke-miterlimit:10;stroke-dasharray:none;stroke-opacity:1"
                     d="m 3779.28,1579.69 h 425.18 v 1587.35" />
                </g>
              </g>
              <path
                 id="path104"
                 style="fill:none;stroke:#000000;stroke-width:9.44849968;stroke-linecap:butt;stroke-linejoin:miter;stroke-miterlimit:10;stroke-dasharray:none;stroke-opacity:1"
                 d="m 4223.36,3070.66 -18.9,75.59 -18.9,-75.59" />
              <g
                 id="g106">
                <g
                   clip-path="url(#clipPath112)"
                   id="g108">
                  <path
                     id="path114"
                     style="fill:none;stroke:#000000;stroke-width:9.44849968;stroke-linecap:butt;stroke-linejoin:miter;stroke-miterlimit:10;stroke-dasharray:none;stroke-opacity:1"
                     d="M 4516.26,3280.42 V 219.102 h -2239.3 l 481.88,2579.438" />
                </g>
              </g>
              <path
                 id="path116"
                 style="fill:none;stroke:#000000;stroke-width:9.44849968;stroke-linecap:butt;stroke-linejoin:miter;stroke-miterlimit:10;stroke-dasharray:none;stroke-opacity:1"
                 d="m 2759.47,2700.28 -4.41,77.48 -32.76,-70.55" />
              <g
                 id="g118">
                <g
                   clip-path="url(#clipPath124)"
                   id="g120">
                  <path
                     id="path126"
                     style="fill:none;stroke:#000000;stroke-width:9.44849968;stroke-linecap:butt;stroke-linejoin:miter;stroke-miterlimit:10;stroke-dasharray:none;stroke-opacity:1"
                     d="m 2787.18,729.32 h 396.84 l 453.53,680.29" />
                </g>
              </g>
              <path
                 id="path128"
                 style="fill:none;stroke:#000000;stroke-width:9.44849968;stroke-linecap:butt;stroke-linejoin:miter;stroke-miterlimit:10;stroke-dasharray:none;stroke-opacity:1"
                 d="m 3599.76,1318.91 26.45,73.07 -57.95,-52.28" />
              <g
                 id="g130">
                <g
                   clip-path="url(#clipPath136)"
                   id="g132">
                  <path
                     id="path138"
                     style="fill:none;stroke:#000000;stroke-width:9.44849968;stroke-linecap:butt;stroke-linejoin:miter;stroke-miterlimit:10;stroke-dasharray:none;stroke-opacity:1"
                     d="M 916.383,2430.05 H 2276.96" />
                </g>
              </g>
              <path
                 id="path140"
                 style="fill:none;stroke:#000000;stroke-width:9.44849968;stroke-linecap:butt;stroke-linejoin:miter;stroke-miterlimit:10;stroke-dasharray:none;stroke-opacity:1"
                 d="m 2180.59,2411.15 75.59,18.9 -75.59,18.9" />
              <g
                 id="g142">
                <g
                   clip-path="url(#clipPath148)"
                   id="g144">
                  <path
                     id="path150"
                     style="fill:none;stroke:#000000;stroke-width:9.44849968;stroke-linecap:butt;stroke-linejoin:miter;stroke-miterlimit:10;stroke-dasharray:none;stroke-opacity:1"
                     d="M 916.383,3280.42 H 4062.73" />
                </g>
              </g>
              <path
                 id="path152"
                 style="fill:none;stroke:#000000;stroke-width:9.44849968;stroke-linecap:butt;stroke-linejoin:miter;stroke-miterlimit:10;stroke-dasharray:none;stroke-opacity:1"
                 d="m 3966.36,3261.52 75.59,18.9 -75.59,18.89" />
              <path
                 id="path154"
                 style="fill:none;stroke:#000000;stroke-width:9.44849968;stroke-linecap:butt;stroke-linejoin:miter;stroke-miterlimit:10;stroke-dasharray:56.691;stroke-dashoffset:0;stroke-opacity:1"
                 d="m 1936.82,389.176 h 1955.84 v 2267.64 H 1936.82 Z" />
              <g
                 id="g156">
                <g
                   clip-path="url(#clipPath162)"
                   id="g158">
                  <path
                     id="path164"
                     style="fill:none;stroke:#000000;stroke-width:9.44849968;stroke-linecap:butt;stroke-linejoin:bevel;stroke-miterlimit:10;stroke-dasharray:none;stroke-opacity:1"
                     d="m 4337.37,3286.09 h 340.15" />
                </g>
              </g>
              <path
                 id="path166"
                 style="fill:#000000;fill-opacity:1;fill-rule:evenodd;stroke:none"
                 d="m 4625.86,3272.23 37.8,13.86 -37.8,14.48 v -28.34" />
              <path
                 id="path168"
                 style="fill:none;stroke:#000000;stroke-width:9.44849968;stroke-linecap:butt;stroke-linejoin:miter;stroke-miterlimit:10;stroke-dasharray:none;stroke-opacity:1"
                 d="m 4625.86,3272.23 37.8,13.86 -37.8,14.48 z" />
              <g
                 transform="scale(10)"
                 id="g170">
                <text
                   id="text176"
                   style="font-variant:normal;font-weight:normal;font-size:13.99950027px;font-family:Symbol;-inkscape-font-specification:Symbol;writing-mode:lr-tb;fill:#000000;fill-opacity:1;fill-rule:nonzero;stroke:none"
                   transform="matrix(1,0,0,-1,414.462,323.947)">
                  <tspan
                     id="tspan172"
                     y="0"
                     x="0">Σ</tspan>
                  <tspan
                     id="tspan174"
                     y="173.789"
                     x="-56.313301">Σ</tspan>
                </text>
                <text
                   id="text180"
                   style="font-style:italic;font-variant:normal;font-size:13.99950027px;font-family:Times;-inkscape-font-specification:Times-Italic;writing-mode:lr-tb;fill:#000000;fill-opacity:1;fill-rule:nonzero;stroke:none"
                   transform="matrix(1,0,0,-1,399.9741,161.1182)">
                  <tspan
                     id="tspan178"
                     y="0"
                     x="0">v</tspan>
                </text>
                <text
                   id="text184"
                   style="font-variant:normal;font-weight:normal;font-size:13.99950027px;font-family:Times;-inkscape-font-specification:Times-Roman;writing-mode:lr-tb;fill:#000000;fill-opacity:1;fill-rule:nonzero;stroke:none"
                   transform="matrix(1,0,0,-1,400.60418,166.4725)">
                  <tspan
                     id="tspan182"
                     y="0"
                     x="0">^</tspan>
                </text>
                <text
                   id="text190"
                   style="font-style:italic;font-variant:normal;font-size:13.99950027px;font-family:Times;-inkscape-font-specification:Times-Italic;writing-mode:lr-tb;fill:#000000;fill-opacity:1;fill-rule:nonzero;stroke:none"
                   transform="matrix(1,0,0,-1,496.97878,328.0425)">
                  <tspan
                     id="tspan186"
                     y="0"
                     x="0">^</tspan>
                  <tspan
                     id="tspan188"
                     y="2.83477"
                     x="-20.786699 -14.570922 -5.1212597 -1.6213845">e= s</tspan>
                </text>
                <text
                   id="text196"
                   style="font-style:italic;font-variant:normal;font-size:10.99989986px;font-family:Times;-inkscape-font-specification:Times-Italic;writing-mode:lr-tb;fill:#000000;fill-opacity:1;fill-rule:nonzero;stroke:none"
                   transform="matrix(1,0,0,-1,158.66008,246.02923)">
                  <tspan
                     id="tspan192"
                     y="0"
                     x="0">1</tspan>
                  <tspan
                     id="tspan194"
                     y="-0.44101599"
                     x="26.014799">1</tspan>
                </text>
                <text
                   id="text200"
                   style="font-style:italic;font-variant:normal;font-size:13.99950027px;font-family:Times;-inkscape-font-specification:Times-Italic;writing-mode:lr-tb;fill:#000000;fill-opacity:1;fill-rule:nonzero;stroke:none"
                   transform="matrix(1,0,0,-1,156.64398,253.39916)">
                  <tspan
                     id="tspan198"
                     y="0"
                     x="0 6.2157779 9.7156534 19.165316 22.66519 28.880968">y = v’</tspan>
                </text>
                <text
                   id="text204"
                   style="font-style:italic;font-variant:normal;font-size:10.99989986px;font-family:Times;-inkscape-font-specification:Times-Italic;writing-mode:lr-tb;fill:#000000;fill-opacity:1;fill-rule:nonzero;stroke:none"
                   transform="matrix(1,0,0,-1,185.43068,82.129156)">
                  <tspan
                     id="tspan202"
                     y="0"
                     x="0">p</tspan>
                </text>
                <text
                   id="text208"
                   style="font-style:italic;font-variant:normal;font-size:13.99950027px;font-family:Times;-inkscape-font-specification:Times-Italic;writing-mode:lr-tb;fill:#000000;fill-opacity:1;fill-rule:nonzero;stroke:none"
                   transform="matrix(1,0,0,-1,156.64398,85.089706)">
                  <tspan
                     id="tspan206"
                     y="0"
                     x="0 6.2157779 9.7156534 19.165316 22.66519 28.880968">y = v’</tspan>
                </text>
                <text
                   id="text212"
                   style="font-style:italic;font-variant:normal;font-size:10.99989986px;font-family:Times;-inkscape-font-specification:Times-Italic;writing-mode:lr-tb;fill:#000000;fill-opacity:1;fill-rule:nonzero;stroke:none"
                   transform="matrix(1,0,0,-1,161.49437,82.129156)">
                  <tspan
                     id="tspan210"
                     y="0"
                     x="0">p</tspan>
                </text>
                <text
                   id="text216"
                   style="font-style:italic;font-variant:normal;font-size:13.99950027px;font-family:Times;-inkscape-font-specification:Times-Italic;writing-mode:lr-tb;fill:#000000;fill-opacity:1;fill-rule:nonzero;stroke:none"
                   transform="matrix(1,0,0,-1,156.83304,189.27516)">
                  <tspan
                     id="tspan214"
                     y="0"
                     x="0 6.2157779 9.7156534 19.165316 22.66519 28.880968">y = v’</tspan>
                </text>
                <text
                   id="text222"
                   style="font-style:italic;font-variant:normal;font-size:10.99989986px;font-family:Times;-inkscape-font-specification:Times-Italic;writing-mode:lr-tb;fill:#000000;fill-opacity:1;fill-rule:nonzero;stroke:none"
                   transform="matrix(1,0,0,-1,161.05335,183.48024)">
                  <tspan
                     id="tspan218"
                     y="0"
                     x="0">2</tspan>
                  <tspan
                     id="tspan220"
                     y="-0.62968701"
                     x="23.9363">2</tspan>
                </text>
                <text
                   id="text232"
                   style="font-variant:normal;font-weight:normal;font-size:13.99950027px;font-family:Times;-inkscape-font-specification:Times-Roman;writing-mode:lr-tb;fill:#000000;fill-opacity:1;fill-rule:nonzero;stroke:none"
                   transform="matrix(1,0,0,-1,358.08565,172.14192)">
                  <tspan
                     id="tspan224"
                     y="0"
                     x="0">+</tspan>
                  <tspan
                     id="tspan226"
                     y="17.007401"
                     x="-19.841801">+</tspan>
                  <tspan
                     id="tspan228"
                     y="39.683601"
                     x="5.6690998">+</tspan>
                  <tspan
                     id="tspan230"
                     y="-161.5694"
                     x="36.849201">+</tspan>
                </text>
                <text
                   id="text236"
                   style="font-variant:normal;font-weight:bold;font-size:13.99950027px;font-family:Times;-inkscape-font-specification:Times-Bold;writing-mode:lr-tb;fill:#000000;fill-opacity:1;fill-rule:nonzero;stroke:none"
                   transform="matrix(1,0,0,-1,406.27315,308.20042)">
                  <tspan
                     id="tspan234"
                     y="0"
                     x="0">−</tspan>
                </text>
                <text
                   id="text244"
                   style="font-variant:normal;font-weight:normal;font-size:10.99989986px;font-family:Times;-inkscape-font-specification:Times-Roman;writing-mode:lr-tb;fill:#000000;fill-opacity:1;fill-rule:nonzero;stroke:none"
                   transform="matrix(1,0,0,-1,91.134148,246.65942)">
                  <tspan
                     id="tspan238"
                     y="0"
                     x="0 4.8839555 7.9419279 12.825884 17.709839 20.767811 24.430779 29.930727 35.430679">electrode</tspan>
                  <tspan
                     id="tspan240"
                     y="15.9367"
                     x="0.50390601 3.5618782 9.0618286 14.561778 18.224745 23.1087 27.992657 31.050629 36.550579 42.050529 46.934483 49.68446">thoracique 1</tspan>
                  <tspan
                     id="tspan242"
                     y="-64.375801"
                     x="0.50390601 5.3878617 8.4458342 13.329789 18.213745 21.271717 24.934685 30.434633 35.934586 40.818539 43.568516 48.452469 53.952419 59.45237 64.952324 73.510239 76.568214 82.068161 86.952118 90.010094">electrode abdominale</tspan>
                </text>
                <text
                   id="text248"
                   style="font-style:italic;font-variant:normal;font-size:13.99950027px;font-family:Times;-inkscape-font-specification:Times-Italic;writing-mode:lr-tb;fill:#000000;fill-opacity:1;fill-rule:nonzero;stroke:none"
                   transform="matrix(1,0,0,-1,91.638054,333.71142)">
                  <tspan
                     id="tspan246"
                     y="0"
                     x="0 6.2157779 9.7156534 19.165316 22.66519 28.110996 31.61087 41.060532 44.56041">x = s + v</tspan>
                </text>
                <text
                   id="text254"
                   style="font-variant:normal;font-weight:normal;font-size:13.99950027px;font-family:Times;-inkscape-font-specification:Times-Roman;writing-mode:lr-tb;fill:#000000;fill-opacity:1;fill-rule:nonzero;stroke:none"
                   transform="matrix(1,0,0,-1,1.373254,169.30742)">
                  <tspan
                     id="tspan250"
                     y="0"
                     x="0 9.3376665 15.553445 20.215279 26.431055 31.09289 37.308666 44.308418 50.524197 56.739975">References</tspan>
                  <tspan
                     id="tspan252"
                     y="-156.845"
                     x="-0.44101599 9.6666231 16.666372 20.558233 26.774012 30.273888 35.719692 39.611553 46.611305 53.611053 59.826832">Voie signal</tspan>
                </text>
                <text
                   id="text258"
                   style="font-variant:normal;font-weight:normal;font-size:17.99939919px;font-family:Times;-inkscape-font-specification:Times-Roman;writing-mode:lr-tb;fill:#000000;fill-opacity:1;fill-rule:nonzero;stroke:none"
                   transform="matrix(0,-1,-1,0,119.984,135.292)">
                  <tspan
                     id="tspan256"
                     y="0"
                     x="0 4.4998498 8.9996996 13.49955 17.999399">. . .</tspan>
                </text>
                <text
                   id="text262"
                   style="font-variant:normal;font-weight:normal;font-size:13.99950027px;font-family:Times;-inkscape-font-specification:Times-Roman;writing-mode:lr-tb;fill:#000000;fill-opacity:1;fill-rule:nonzero;stroke:none"
                   transform="matrix(1,0,0,-1,193.682,4.90273)">
                  <tspan
                     id="tspan260"
                     y="0"
                     x="0 7.7837219 11.675583 15.567444 19.459305 24.121138 30.336916 33.836792 40.05257 47.052319 53.268097 60.267849 64.159706 70.375488 74.267349 78.15921 82.821045 86.320915 97.212524 104.21228 108.10414 111.996 115.88786 123.78358 128.44542 134.66119 139.32303 145.5388 150.20064 156.41641 163.41617 169.63194 175.84772">Filtre adaptatif multi−references</tspan>
                </text>
              </g>
            </g>
          </g>
        </g>
      </g>
    </g>
  </g>
</svg>
